<svg width="39" height="35" viewBox="0 0 39 35" fill="none" xmlns="http://www.w3.org/2000/svg">
<path d="M2.0789 0.0117151C1.43231 0.134213 0.853307 0.555833 0.469255 1.18382C0.0852038 1.81181 -0.0724345 2.59473 0.031019 3.36035C0.134472 4.12596 0.490543 4.81155 1.0209 5.26631C1.55126 5.72106 2.21246 5.90771 2.85904 5.78522H10.1729L10.6117 7.22859L12.6108 14.4455L14.61 21.6623C14.805 22.4129 15.6339 23.1057 16.2678 23.1057H33.3334C34.016 23.1057 34.7962 22.4129 34.9912 21.6623L38.9407 7.22859C39.1357 6.47804 38.8432 5.78522 38.1605 5.78522H16.5116L14.6587 1.6283C14.4614 1.15117 14.1567 0.747782 13.7781 0.462554C13.3996 0.177325 12.9619 0.0213194 12.5133 0.0117151L2.76152 0.0117151C2.61554 -0.00390504 2.46867 -0.00390504 2.32269 0.0117151C2.22526 0.00478066 2.12757 0.00478066 2.03014 0.0117151L2.0789 0.0117151ZM17.4867 28.8792C16.1215 28.8792 15.0488 30.1494 15.0488 31.766C15.0488 33.3826 16.1215 34.6527 17.4867 34.6527C18.852 34.6527 19.9247 33.3826 19.9247 31.766C19.9247 30.1494 18.852 28.8792 17.4867 28.8792ZM32.1144 28.8792C30.7492 28.8792 29.6765 30.1494 29.6765 31.766C29.6765 33.3826 30.7492 34.6527 32.1144 34.6527C33.4797 34.6527 34.5524 33.3826 34.5524 31.766C34.5524 30.1494 33.4797 28.8792 32.1144 28.8792Z" fill="black"/>
</svg>
