<svg width="44" height="47" viewBox="0 0 44 47" fill="none" xmlns="http://www.w3.org/2000/svg">
<path d="M32.523 47C30.2544 47 27.8654 46.4098 25.3961 45.273C22.9869 44.1581 20.5578 42.6279 18.1888 40.7698C15.8399 38.8898 13.5713 36.7912 11.4232 34.4958C9.29516 32.1567 7.36787 29.6865 5.66141 27.1507C3.93488 24.5274 2.54964 21.9042 1.56592 19.3684C0.521974 16.6577 0 14.0344 0 11.5642C0 9.85907 0.281063 8.2414 0.823113 6.73302C1.38524 5.18093 2.28866 3.73814 3.51329 2.49209C5.05914 0.830698 6.82582 0 8.71296 0C9.49592 0 10.299 0.196744 10.9815 0.546512C11.7645 0.94 12.427 1.53023 12.9088 2.31721L17.5664 9.46558C17.988 10.0995 18.3093 10.7116 18.5301 11.3237C18.7911 11.9795 18.9316 12.6353 18.9316 13.2693C18.9316 14.1 18.7108 14.9088 18.2892 15.674C17.988 16.2642 17.5263 16.8981 16.9441 17.5321L15.5789 19.0842C15.599 19.1498 15.6191 19.1935 15.6392 19.2372C15.8801 19.6963 16.3619 20.4833 17.2854 21.6637C18.2691 22.8879 19.1926 24.0028 20.1161 25.0302C21.3006 26.2981 22.2843 27.3037 23.2078 28.1344C24.3521 29.1837 25.0949 29.7084 25.5366 29.9488L25.4964 30.0581L26.962 28.4842C27.5843 27.8065 28.1866 27.3037 28.7688 26.9758C29.873 26.2326 31.2783 26.1014 32.6836 26.7353C33.2056 26.9758 33.7677 27.3037 34.37 27.7628L41.0352 32.9219C41.778 33.4684 42.3201 34.1679 42.6413 34.9986C42.9424 35.8293 43.083 36.5944 43.083 37.3595C43.083 38.4088 42.8621 39.4581 42.4405 40.4419C42.0189 41.4256 41.497 42.2781 40.8345 43.0651C39.6901 44.4423 38.4454 45.426 37 46.06C35.6147 46.6721 34.109 47 32.523 47ZM8.71296 3.27907C7.60878 3.27907 6.58491 3.80372 5.60119 4.85302C4.67769 5.79302 4.03526 6.82047 3.63374 7.93535C3.21215 9.07209 3.01139 10.2744 3.01139 11.5642C3.01139 13.5972 3.45306 15.8051 4.3364 18.0786C5.23982 20.3958 6.5046 22.8005 8.11068 25.2051C9.71675 27.6098 11.5437 29.9488 13.5513 32.1567C15.5589 34.3209 17.7271 36.3321 19.9555 38.1028C22.1237 39.8298 24.3521 41.2288 26.5605 42.2344C29.9934 43.8302 33.2056 44.2019 35.8556 42.9995C36.8795 42.5405 37.7829 41.8409 38.606 40.8354C39.0678 40.2888 39.4291 39.6986 39.7303 38.9991C39.9712 38.4526 40.0916 37.8842 40.0916 37.3158C40.0916 36.966 40.0314 36.6163 39.8708 36.2228C39.8106 36.0916 39.6901 35.8512 39.3087 35.567L32.6435 30.4079C32.242 30.1019 31.8806 29.8833 31.5393 29.7302C31.0976 29.5335 30.9169 29.3367 30.2344 29.7958C29.8328 30.0144 29.4715 30.3423 29.07 30.7795L27.5442 32.4191C26.7612 33.2498 25.5567 33.4465 24.6332 33.0749L24.0911 32.8126C23.268 32.3316 22.3044 31.5884 21.2403 30.6047C20.2767 29.7084 19.2327 28.6591 17.968 27.3037C16.9842 26.2107 16.0005 25.0521 14.9766 23.7623C14.0331 22.56 13.3505 21.5326 12.9289 20.68L12.688 20.0242C12.5675 19.5214 12.5274 19.2372 12.5274 18.9312C12.5274 18.1442 12.7884 17.4447 13.2903 16.8981L14.796 15.193C15.1975 14.7558 15.4986 14.3405 15.6994 13.9688C15.86 13.6847 15.9202 13.4442 15.9202 13.2256C15.9202 13.0507 15.86 12.7884 15.7596 12.526C15.6191 12.1763 15.3982 11.7828 15.1172 11.3674L10.4596 4.19721C10.2588 3.89116 10.0179 3.67256 9.71675 3.51953C9.39554 3.36651 9.05425 3.27907 8.71296 3.27907ZM25.4964 30.08L25.1752 31.5665L25.7173 30.0363C25.6169 30.0144 25.5366 30.0363 25.4964 30.08Z" fill="#292D32"/>
<path d="M34.631 18.5814C33.8079 18.5814 33.1253 17.8382 33.1253 16.9419C33.1253 16.1549 32.4026 14.5154 31.198 13.1163C30.0136 11.7391 28.7086 10.9303 27.6045 10.9303C26.7813 10.9303 26.0988 10.187 26.0988 9.29072C26.0988 8.39444 26.7813 7.65118 27.6045 7.65118C29.5518 7.65118 31.5996 8.78793 33.3863 10.8647C35.0526 12.8103 36.1367 15.193 36.1367 16.9419C36.1367 17.8382 35.4541 18.5814 34.631 18.5814Z" fill="#292D32"/>
<path d="M41.6576 18.5814C40.8345 18.5814 40.1519 17.8381 40.1519 16.9419C40.1519 9.4 34.5306 3.27907 27.6045 3.27907C26.7813 3.27907 26.0988 2.53581 26.0988 1.63953C26.0988 0.743256 26.7813 0 27.6045 0C36.1769 0 43.1633 7.60744 43.1633 16.9419C43.1633 17.8381 42.4807 18.5814 41.6576 18.5814Z" fill="#292D32"/>
</svg>
