<svg width="27" height="27" viewBox="0 0 27 27" fill="none" xmlns="http://www.w3.org/2000/svg">
<path opacity="0.4" d="M24.1368 25.569C22.8543 26.514 21.1669 27 19.1554 27H7.84273C7.51874 27 7.19476 26.9865 6.88427 26.946L16.199 17.6311L24.1368 25.569Z" fill="#292D32"/>
<path opacity="0.4" d="M26.9998 7.84353V19.1565C26.9998 21.1679 26.514 22.8554 25.569 24.1379L17.6311 16.2L26.9458 6.88503C26.9863 7.19553 26.9998 7.51953 26.9998 7.84353Z" fill="#292D32"/>
<path opacity="0.4" d="M17.6305 16.1999L25.5683 24.1379C25.1768 24.7048 24.7044 25.1773 24.1374 25.5688L16.1996 17.6309L6.88483 26.9458C6.02086 26.8918 5.23788 26.7163 4.5224 26.4463C1.63347 25.3933 0 22.8284 0 19.1564V7.84345C0 2.92948 2.92942 0 7.8433 0H19.156C22.8279 0 25.3928 1.63349 26.4458 4.52247C26.7158 5.23797 26.8913 6.02096 26.9453 6.88496L17.6305 16.1999Z" fill="#292D32"/>
<path d="M17.6299 16.2001L25.5677 24.138C25.1762 24.705 24.7037 25.1775 24.1367 25.569L16.1989 17.6311L6.88416 26.946C6.02018 26.892 5.2372 26.7165 4.52172 26.4465L5.04818 25.92L26.4451 4.52264C26.7151 5.23813 26.8906 6.02113 26.9446 6.88512L17.6299 16.2001Z" fill="#292D32"/>
<path d="M13.8247 8.00517C13.3117 5.77769 11.3408 4.77869 9.61279 4.76519C7.88483 4.76519 5.9139 5.76417 5.40091 7.99166C4.83392 10.4621 6.34587 12.5277 7.70934 13.8237C8.24932 14.3366 8.9243 14.5796 9.61279 14.5796C10.3013 14.5796 10.9763 14.3231 11.5163 13.8237C12.8797 12.5277 14.3917 10.4622 13.8247 8.00517ZM9.65329 10.1111C8.9108 10.1111 8.30332 9.50365 8.30332 8.76116C8.30332 8.01866 8.8973 7.41116 9.65329 7.41116H9.6668C10.4093 7.41116 11.0168 8.01866 11.0168 8.76116C11.0168 9.50365 10.3958 10.1111 9.65329 10.1111Z" fill="#292D32"/>
</svg>
