<svg width="34" height="37" viewBox="0 0 34 37" fill="none" xmlns="http://www.w3.org/2000/svg">
<path d="M17 0C7.633 0 0 8.19198 0 18.2449C0 28.2979 7.633 36.4899 17 36.4899C26.367 36.4899 34 28.2979 34 18.2449C34 8.19198 26.367 0 17 0ZM21.743 19.2119L15.742 25.6524C15.487 25.9261 15.164 26.0538 14.841 26.0538C14.518 26.0538 14.195 25.9261 13.94 25.6524C13.447 25.1233 13.447 24.2475 13.94 23.7184L19.04 18.2449L13.94 12.7715C13.447 12.2424 13.447 11.3666 13.94 10.8375C14.433 10.3084 15.249 10.3084 15.742 10.8375L21.743 17.278C22.253 17.8071 22.253 18.6828 21.743 19.2119Z" fill="#292D32"/>
</svg>
