<svg width="54" height="41" viewBox="0 0 54 41" fill="none" xmlns="http://www.w3.org/2000/svg">
<path d="M27 41C12.106 41 0 31.8084 0 20.5C0 9.19163 12.106 0 27 0C41.894 0 54 9.19163 54 20.5C54 31.8084 41.894 41 27 41ZM27 2.86047C14.1907 2.86047 3.76744 10.7744 3.76744 20.5C3.76744 30.2256 14.1907 38.1395 27 38.1395C39.8093 38.1395 50.2326 30.2256 50.2326 20.5C50.2326 10.7744 39.8093 2.86047 27 2.86047Z" fill="#292D32"/>
<path d="M23.4323 27.3272C22.9299 27.3272 22.4527 27.1746 22.1011 26.9077L14.9931 21.5109C14.2647 20.9579 14.2647 20.0425 14.9931 19.4895C15.7214 18.9365 16.927 18.9365 17.6554 19.4895L23.4323 23.8756L36.342 14.0737C37.0704 13.5207 38.276 13.5207 39.0043 14.0737C39.7327 14.6267 39.7327 15.5421 39.0043 16.0951L24.7634 26.9077C24.4118 27.1746 23.9346 27.3272 23.4323 27.3272Z" fill="#292D32"/>
</svg>
