<svg width="49" height="49" viewBox="0 0 49 49" fill="none" xmlns="http://www.w3.org/2000/svg">
<path d="M24.5 0C11.0005 0 0 11.0005 0 24.5C0 37.9995 11.0005 49 24.5 49C37.9995 49 49 37.9995 49 24.5C49 11.0005 37.9995 0 24.5 0ZM31.3355 25.7985L22.687 34.447C22.3195 34.8145 21.854 34.986 21.3885 34.986C20.923 34.986 20.4575 34.8145 20.09 34.447C19.3795 33.7365 19.3795 32.5605 20.09 31.85L27.44 24.5L20.09 17.15C19.3795 16.4395 19.3795 15.2635 20.09 14.553C20.8005 13.8425 21.9765 13.8425 22.687 14.553L31.3355 23.2015C32.0705 23.912 32.0705 25.088 31.3355 25.7985Z" fill="#292D32"/>
</svg>
