<svg width="29" height="37" viewBox="0 0 29 37" fill="none" xmlns="http://www.w3.org/2000/svg">
<path d="M28.5916 12.0927C26.8761 3.75415 20.2919 0 14.5082 0C14.5082 0 14.5082 0 14.4919 0C8.72448 0 2.12391 3.7361 0.408415 12.0746C-1.50314 21.3878 3.65969 29.2751 8.33237 34.2385C10.0642 36.0795 12.2862 37 14.5082 37C16.7302 37 18.9521 36.0795 20.6676 34.2385C25.3403 29.2751 30.5031 21.4059 28.5916 12.0927ZM14.5082 21.1351C11.6654 21.1351 9.36166 18.5902 9.36166 15.4498C9.36166 12.3093 11.6654 9.76439 14.5082 9.76439C17.351 9.76439 19.6547 12.3093 19.6547 15.4498C19.6547 18.5902 17.351 21.1351 14.5082 21.1351Z" fill="#292D32"/>
</svg>
