<svg width="36" height="36" viewBox="0 0 36 36" fill="none" xmlns="http://www.w3.org/2000/svg">
<path d="M23.6889 36H23.4606C15.6629 36 11.9046 32.9328 11.2548 26.0623C11.1846 25.3437 11.7114 24.6952 12.4491 24.6251C13.1516 24.555 13.8189 25.0984 13.8892 25.8169C14.3985 31.3204 16.9977 33.371 23.4781 33.371H23.7064C30.8543 33.371 33.3832 30.8471 33.3832 23.7137V12.2863C33.3832 5.15287 30.8543 2.62901 23.7064 2.62901H23.4781C16.9626 2.62901 14.3633 4.7147 13.8892 10.3233C13.8014 11.0419 13.1867 11.5852 12.4491 11.5151C11.7114 11.4625 11.1846 10.814 11.2373 10.0954C11.8344 3.11976 15.6103 0 23.4606 0H23.6889C32.3119 0 36 3.68062 36 12.2863V23.7137C36 32.3194 32.3119 36 23.6889 36Z" fill="#292D32"/>
<path d="M23.2649 19.3145H3.2792C2.55915 19.3145 1.96204 18.7186 1.96204 18C1.96204 17.2814 2.55915 16.6855 3.2792 16.6855H23.2649C23.985 16.6855 24.5821 17.2814 24.5821 18C24.5821 18.7186 23.985 19.3145 23.2649 19.3145Z" fill="#292D32"/>
<path d="M7.19612 25.1862C6.86244 25.1862 6.52875 25.0635 6.26532 24.8006L0.381978 18.9291C-0.127326 18.4209 -0.127326 17.5796 0.381978 17.0713L6.26532 11.1998C6.77463 10.6915 7.61761 10.6915 8.12692 11.1998C8.63622 11.7081 8.63622 12.5494 8.12692 13.0576L3.17437 18.0002L8.12692 22.9428C8.63622 23.451 8.63622 24.2923 8.12692 24.8006C7.88105 25.0635 7.5298 25.1862 7.19612 25.1862Z" fill="#292D32"/>
</svg>
