<svg width="27" height="27" viewBox="0 0 27 27" fill="none" xmlns="http://www.w3.org/2000/svg">
<path opacity="0.4" d="M26.6196 8.82009C25.0371 2.72501 18.8896 0 13.5029 0C13.5029 0 13.5029 0 13.4876 0C8.11622 0 1.98391 2.72501 0.386158 8.80692C-1.40941 15.5997 3.39905 21.3525 7.75102 24.9859C9.36398 26.3286 11.4334 27 13.5029 27C15.5723 27 17.6418 26.3286 19.2395 24.9859C23.5915 21.3525 28.4 15.6129 26.6196 8.82009Z" fill="#292D32"/>
<path d="M11.599 15.4679C11.3099 15.4679 11.0207 15.3758 10.7925 15.1783L8.50992 13.2037C8.06863 12.8219 8.06863 12.19 8.50992 11.8082C8.9512 11.4265 9.6816 11.4265 10.1229 11.8082L11.599 13.0852L16.8792 8.51722C17.3204 8.13545 18.0508 8.13545 18.4921 8.51722C18.9334 8.89898 18.9334 9.53087 18.4921 9.91264L12.4055 15.1783C12.1772 15.3758 11.8881 15.4679 11.599 15.4679Z" fill="#292D32"/>
</svg>
